:SAMPLES-PER-SECOND 30
:FULLY-SPECIFIED
:DEGREES
199
root  -25.6547 37.4426 -12.7625 -170.156 12.3847 178.395
RightUpLeg  -43.6138 -4.89744 8.15015
RightLeg  24.8843 14.8312 -1.46511
RightFoot  -11.7081 0.13055 -3.01146
RightToes  -5.82073e-011 -3.18055e-015 -2.98177e-016
Spine  21.7246 -2.83986 -0.240546
Spine1  14.3025 -3.61365 -2.61788
HEad  -11.7054 2.10038 -8.18052
LeftShoulder1  -3.88251e-019 9.70628e-020 -3.87848e-018
LeftArm  -25.8109 56.9448 -64.1557
LeftForeArm  -28.4391 -46.5232 10.4969
LeftHand  -2.13723 -7.0849 20.6362
RightShoulder  6.83144 9.8823 33.3802
RightArm  47.1184 -57.8733 -32.5963
RightForeArm  -11.1247 53.439 -36.5499
RightHand  -2.13885 8.7547 -17.4352
LeftUpLeg  -48.333 7.04055 -7.67357
LeftLeg  29.488 -6.18483 5.39266
LeftFoot  -16.0551 -0.158995 -3.32225
LeftToes  1.2018e-011 -3.94675e-011 -1.33631e-011
200
root  -25.4286 34.959 -14.7718 -170.433 14.2178 178.781
RightUpLeg  -51.0958 -2.47881 7.61413
RightLeg  37.7841 14.7385 -1.66985
RightFoot  -4.24067 0.656452 -8.5868
RightToes  -5.82073e-011 -3.18055e-015 -2.98177e-016
Spine  24.1652 -1.61435 0.494839
Spine1  12.2241 -3.15959 -0.490185
HEad  -16.5093 1.29889 -9.16694
LeftShoulder1  -3.88251e-019 9.70628e-020 -3.87848e-018
LeftArm  -28.1239 64.6257 -70.3862
LeftForeArm  -29.8443 -44.851 9.75638
LeftHand  -2.0625 -7.60791 19.1224
RightShoulder  7.55921 10.3652 36.0714
RightArm  47.5047 -60.1337 -33.7552
RightForeArm  -18.7528 50.7134 -32.1662
RightHand  -1.78214 6.68278 -17.0214
LeftUpLeg  -52.2956 3.9503 -5.48693
LeftLeg  33.386 -2.75616 8.87056
LeftFoot  -5.83119 -0.033439 0.0250947
LeftToes  1.2018e-011 -3.94675e-011 -1.33631e-011
201
root  -25.2396 32.5571 -16.584 -173.603 15.8093 178.959
RightUpLeg  -56.6688 -2.97259 7.90477
RightLeg  58.1912 15.8595 -0.878841
RightFoot  -5.14809 0.743582 -10.3936
RightToes  -5.82073e-011 -3.18055e-015 -2.98177e-016
Spine  28.9864 -0.832781 -0.261975
Spine1  11.866 -2.43031 0.952904
HEad  -20.3702 1.31433 -8.20702
LeftShoulder1  -3.88251e-019 9.70628e-020 -3.87848e-018
LeftArm  -27.6179 65.1317 -75.0195
LeftForeArm  -31.2085 -36.9911 6.86514
LeftHand  -1.91098 -7.7996 17.4159
RightShoulder  7.79316 10.5462 36.8287
RightArm  36.3004 -59.6925 -18.7438
RightForeArm  -22.9551 45.3286 -25.9871
RightHand  -1.44806 3.95434 -17.7454
LeftUpLeg  -57.8435 2.38909 -3.44656
LeftLeg  51.2976 -4.4417 13.3338
LeftFoot  -0.870571 -0.321495 3.18611
LeftToes  1.2018e-011 -3.94675e-011 -1.33631e-011
202
root  -25.0491 30.8682 -18.3557 -175.311 16.6969 179.649
RightUpLeg  -58.4744 -3.71311 8.48382
RightLeg  71.1908 15.6558 -1.50414
RightFoot  -14.63 -0.0764488 -10.2377
RightToes  -5.82073e-011 -3.18055e-015 -2.98177e-016
Spine  31.2781 -0.47327 0.269664
Spine1  12.9101 -1.76301 1.59193
HEad  -21.063 1.57106 -7.15791
LeftShoulder1  -3.88251e-019 9.70628e-020 -3.87848e-018
LeftArm  -24.0837 58.6186 -73.9956
LeftForeArm  -26.5658 -23.4446 1.78513
LeftHand  -1.23545 -6.65187 12.5097
RightShoulder  8.27049 10.8566 38.4644
RightArm  22.9496 -50.7091 2.53181
RightForeArm  -23.1784 36.2502 -18.9115
RightHand  -1.11579 1.807 -17.6548
LeftUpLeg  -60.8545 3.0319 -2.48015
LeftLeg  65.2963 -8.09326 14.8439
LeftFoot  -6.03632 -0.188305 2.51971
LeftToes  1.2018e-011 -3.94675e-011 -1.33631e-011
203
root  -24.9227 30.3852 -19.7673 -173.878 17.2549 -179.696
RightUpLeg  -59.4266 -3.64782 8.92054
RightLeg  75.0439 15.4217 -2.79977
RightFoot  -21.0341 -0.603081 -9.7881
RightToes  -5.82073e-011 -3.18055e-015 -2.98177e-016
Spine  31.4043 -0.466986 2.18938
Spine1  12.2618 -1.13373 1.32192
HEad  -19.8247 1.38778 -6.92636
LeftShoulder1  -3.88251e-019 9.70628e-020 -3.87848e-018
LeftArm  -27.8523 50.0099 -71.0152
LeftForeArm  -12.0791 -10.9711 -4.02533
LeftHand  -0.808643 -6.00965 8.83622
RightShoulder  8.8752 11.173 40.6423
RightArm  19.4581 -35.8194 16.4849
RightForeArm  -18.5363 25.7709 -12.5918
RightHand  -1.20437 2.52795 -17.3483
LeftUpLeg  -62.1761 3.58051 -2.21645
LeftLeg  70.3693 -9.14081 16.1157
LeftFoot  -13.6524 -0.0341357 0.243192
LeftToes  1.2018e-011 -3.94675e-011 -1.33631e-011
